HIERARCHY
ROOT Hips
{
	OFFSET 0.00000 0.00000 0.00000
	CHANNELS 6 Xposition Yposition Zposition Zrotation Yrotation Xrotation 
	JOINT LHipJoint
	{
		OFFSET 0 0 0
		CHANNELS 3 Zrotation Yrotation Xrotation
		JOINT LeftHip
		{
			OFFSET 1.56857 -1.73443 1.15205
			CHANNELS 3 Zrotation Yrotation Xrotation
			JOINT LeftKnee
			{
				OFFSET 2.39362 -6.57643 0.00000
				CHANNELS 3 Zrotation Yrotation Xrotation
				JOINT LeftAnkle
				{
					OFFSET 2.50952 -6.89485 0.00000
					CHANNELS 3 Zrotation Yrotation Xrotation
					JOINT LeftToe
					{
						OFFSET 0.17171 -0.47178 1.88682
						CHANNELS 3 Zrotation Yrotation Xrotation
						End Site
						{
							OFFSET 0.00000 -0.00000 0.98146
						}
					}
				}
			}
		}
	}
	JOINT RHipJoint
	{
		OFFSET 0 0 0
		CHANNELS 3 Zrotation Yrotation Xrotation
		JOINT RightHip
		{
			OFFSET -1.28153 -1.73443 1.15205
			CHANNELS 3 Zrotation Yrotation Xrotation
			JOINT RightKnee
			{
				OFFSET -2.26861 -6.23296 0.00000
				CHANNELS 3 Zrotation Yrotation Xrotation
				JOINT RightAnkle
				{
					OFFSET -2.54143 -6.98254 0.00000
					CHANNELS 3 Zrotation Yrotation Xrotation
					JOINT RightToe
					{
						OFFSET -0.23309 -0.64041 1.93119
						CHANNELS 3 Zrotation Yrotation Xrotation
						End Site
						{
							OFFSET -0.00000 -0.00000 1.02013
						}
					}
				}
			}
		}
	}
	JOINT lowerback
	{
		OFFSET 0 0 0
		CHANNELS 3 Zrotation Yrotation Xrotation
		JOINT Chest
		{
			OFFSET -0.07096 2.10460 -0.27878
			CHANNELS 3 Zrotation Yrotation Xrotation
			JOINT Chest2
			{
				OFFSET -0.00826 2.13662 -0.08279
				CHANNELS 3 Zrotation Yrotation Xrotation
				JOINT lowerneck
				{
					OFFSET 0 0 0
					CHANNELS 3 Zrotation Yrotation Xrotation
					JOINT Neck
					{
						OFFSET 0.03239 1.77799 0.24435
						CHANNELS 3 Zrotation Yrotation Xrotation
						JOINT Head
						{
							OFFSET 0.01026 1.74194 -0.49664
							CHANNELS 3 Zrotation Yrotation Xrotation
							End Site
							{
								OFFSET 0.00170 1.83057 -0.19653
							}
						}
					}
				}
				JOINT LeftCollar
				{
					OFFSET 0 0 0
					CHANNELS 3 Zrotation Yrotation Xrotation
					JOINT LeftShoulder
					{
						OFFSET 3.19178 1.35907 -0.31412
CHANNELS 3 Zrotation Xrotation Yrotation
						JOINT LeftElbow
						{
OFFSET 0 -4.852470 -0.000000
CHANNELS 3 Zrotation Xrotation Yrotation
							JOINT LeftWrist
							{
OFFSET 0 -3.555840 0.000000
CHANNELS 3 Zrotation Xrotation Yrotation
								JOINT lhand
								{
									OFFSET 0 0 0
CHANNELS 3 Zrotation Xrotation Yrotation
									JOINT LFingers
									{
OFFSET 0 -0.693200 0.000000
CHANNELS 3 Zrotation Xrotation Yrotation
										End Site
										{
OFFSET 0 -0.558880 0.000000
										}
									}
								}
								JOINT LThumb
								{
OFFSET 0 0.000000 0.000000
CHANNELS 3 Zrotation Xrotation Yrotation
									End Site
									{
OFFSET 0 -0.567410 0.567410
									}
								}
							}
						}
					}
				}
				JOINT RightCollar
				{
					OFFSET 0 0 0
					CHANNELS 3 Zrotation Yrotation Xrotation
					JOINT RightShoulder
					{
						OFFSET -3.28999 1.24191 -0.26899
CHANNELS 3 Zrotation Xrotation Yrotation
						JOINT RightElbow
						{
OFFSET 0 -4.644620 0.000000
CHANNELS 3 Zrotation Xrotation Yrotation
							JOINT RightWrist
							{
OFFSET 0 -3.407030 0.000000
CHANNELS 3 Zrotation Xrotation Yrotation
								JOINT rhand
								{
									OFFSET 0 0 0
CHANNELS 3 Zrotation Xrotation Yrotation
									JOINT RFingers
									{
OFFSET 0 -0.619580 0.000000
CHANNELS 3 Zrotation Xrotation Yrotation
										End Site
										{
OFFSET 0 -0.499520 0.000000
										}
									}
								}
								JOINT RThumb
								{
OFFSET 0 0.000000 0.000000
CHANNELS 3 Zrotation Xrotation Yrotation
									End Site
									{
OFFSET 0 -0.507150 0.507150
									}
								}
							}
						}
					}
				}
			}
		}
	}
}
MOTION
Frames: 9
Frame Time: 0.008333333333333333
-29.827500 16.883100 2.511400 119.494000 85.959300 114.900000 0.000000 0.000000 0.000000 -12.124400 1.853700 9.160500 0.211800 2.963100 8.176200 0.530300 1.198800 -14.241800 0.992300 -6.339900 -17.773900 0.000000 0.000000 0.000000 14.551600 -8.956800 9.767400 -0.113900 -2.176300 5.993000 -1.174400 0.151100 -20.446400 -0.232800 -3.105600 8.572800 -1.183900 0.667800 5.078600 0.075800 0.917100 3.424500 0.701300 0.471300 0.652700 1.204700 0.890300 -20.786900 5.174300 -0.331600 28.782700 1.803500 0.904400 13.156800 0.000000 0.000000 0.000000 90.000000 0.000000 0.000000 -0.000000 0.000000 0.000000 -0.000000 0.000000 -0.000000 0.000000 0.000000 0.000000 -0.000000 -0.000000 -0.000000 -0.000000 0.000000 -0.000000 0.000000 0.000000 0.000000 -3.978000 2.315500 33.273300 -16.035500 -25.568800 -3.661300 -12.991800 12.334200 32.462400 0.000000 0.000000 0.000000 7.125000 0.000000 -0.000000 22.813900 61.668400 -9.527700
-29.831161 16.890151 2.545663 113.719294 86.183702 108.508396 0.000000 0.000000 0.000000 -12.607312 1.038580 10.230152 0.213852 2.977146 8.215175 0.548707 2.440647 -15.091533 1.023009 -6.434040 -18.049249 0.000000 0.000000 0.000000 14.245262 -9.358881 9.945361 -0.132572 -2.346703 6.464764 -1.145273 1.080049 -19.902973 -0.270744 -3.346865 9.246053 -1.087003 0.778191 5.670599 0.232905 1.068808 3.539607 0.793362 0.551293 0.438097 -0.342810 1.112027 -19.993286 7.218761 -0.041281 28.921148 2.916372 1.155295 13.035619 0.000000 0.000000 0.000000 90.000000 0.000000 0.000000 0.000000 0.000000 0.000000 0.000000 0.000000 0.000000 0.000000 0.000000 0.000000 0.000000 0.000000 0.000000 0.000000 0.000000 0.000000 0.000000 0.000000 0.000000 -4.202372 2.179477 32.973327 -15.892185 -25.374222 -3.599617 -13.648546 12.865108 31.446815 0.000000 0.000000 0.000000 7.125000 0.000000 0.000000 21.240958 60.897591 -8.447431
-29.820818 16.887333 2.590480 118.566850 86.799699 113.281441 0.000000 0.000000 0.000000 -11.587092 0.972731 10.481395 0.203612 2.905235 8.015016 0.549917 2.501890 -15.140918 1.077840 -6.599081 -18.532891 0.000000 0.000000 0.000000 15.211620 -9.583103 9.970253 -0.133342 -2.353762 6.484331 -1.158981 1.020673 -20.041631 -0.214638 -2.981674 8.227836 -0.659063 0.558730 6.032821 0.665702 0.787431 3.177787 1.005603 0.413025 -0.130226 0.270763 0.995582 -19.902888 6.139893 -0.078446 29.943596 2.418692 1.088583 13.442623 0.000000 0.000000 0.000000 90.000000 0.000000 0.000000 0.000000 0.000000 0.000000 0.000000 0.000000 0.000000 0.000000 0.000000 0.000000 0.000000 0.000000 0.000000 0.000000 0.000000 0.000000 0.000000 0.000000 0.000000 -4.531915 2.855811 33.413380 -16.103671 -25.660962 -3.690723 -14.071951 13.500116 31.186671 0.000000 0.000000 0.000000 7.125000 0.000000 0.000000 20.576924 60.758749 -8.101168
-29.814603 16.885464 2.631641 116.514673 87.144269 111.191459 0.000000 0.000000 0.000000 -10.914749 1.392739 10.335697 0.214363 2.980344 8.224091 0.538835 2.444785 -14.970253 1.298074 -7.218294 -20.363676 0.000000 0.000000 0.000000 15.934253 -9.042108 10.236611 -0.126941 -2.296657 6.326259 -1.175227 0.774953 -20.256333 -0.268406 -3.332509 9.205911 -0.367103 0.578797 5.915608 0.776187 0.830266 3.192614 0.954108 0.436552 -0.048800 2.081732 0.559526 -20.152112 3.599085 -0.538001 30.878092 1.045845 0.769628 13.900956 0.000000 0.000000 0.000000 90.000000 0.000000 0.000000 0.000000 0.000000 0.000000 0.000000 0.000000 0.000000 0.000000 0.000000 0.000000 0.000000 0.000000 0.000000 0.000000 0.000000 0.000000 0.000000 0.000000 0.000000 -4.504741 2.619740 33.319566 -15.967623 -25.476764 -3.632076 -14.144316 13.389074 30.598133 0.000000 0.000000 0.000000 7.125000 0.000000 0.000000 20.033895 60.227935 -7.622844
-29.806461 16.885929 2.675065 112.790927 87.108263 107.376836 0.000000 0.000000 0.000000 -10.783424 1.632306 10.172499 0.237910 3.138772 8.665267 0.572687 2.198696 -15.261807 1.261067 -7.117507 -20.064309 0.000000 0.000000 0.000000 15.696813 -9.646484 9.881659 -0.147321 -2.473429 6.816104 -1.184211 1.378324 -20.162466 -0.183796 -2.759567 7.610266 -0.471192 0.567743 5.848118 0.799556 0.811834 3.268991 1.038890 0.426078 0.066072 3.620814 0.140288 -20.562861 1.586451 -1.057399 31.567901 -0.108272 0.465643 14.277615 0.000000 0.000000 0.000000 90.000000 0.000000 0.000000 0.000000 0.000000 0.000000 0.000000 0.000000 0.000000 0.000000 0.000000 0.000000 0.000000 0.000000 0.000000 0.000000 0.000000 0.000000 0.000000 0.000000 0.000000 -4.419027 2.360909 33.155594 -15.887276 -25.367565 -3.597578 -13.933853 13.438580 30.365033 0.000000 0.000000 0.000000 7.125000 0.000000 0.000000 20.077038 59.961012 -7.511465
-29.807122 16.875460 2.720868 104.982888 87.165159 99.553350 0.000000 0.000000 0.000000 -10.788587 1.574986 10.238875 0.252230 3.231292 8.923411 0.596173 2.443843 -15.675743 1.189060 -6.919594 -19.477448 0.000000 0.000000 0.000000 16.074554 -9.039614 10.027694 -0.149012 -2.487290 6.854371 -1.192518 1.140587 -20.300966 -0.192473 -2.825066 7.792157 -0.469557 0.624632 5.888073 0.704584 0.887117 3.288519 0.935864 0.464619 0.063823 3.836975 0.001899 -20.931602 1.602303 -1.355264 32.322895 -0.184445 0.401497 14.696127 0.000000 0.000000 0.000000 90.000000 0.000000 0.000000 0.000000 0.000000 0.000000 0.000000 0.000000 0.000000 0.000000 0.000000 0.000000 0.000000 0.000000 0.000000 0.000000 0.000000 0.000000 0.000000 0.000000 0.000000 -4.107925 2.168708 33.066426 -15.882399 -25.360984 -3.595467 -13.059868 13.517745 31.641939 0.000000 0.000000 0.000000 7.125000 0.000000 0.000000 22.029647 60.935093 -8.798793
-29.799970 16.875648 2.761496 100.989438 87.131953 95.483145 0.000000 0.000000 0.000000 -10.594316 1.878826 10.102929 0.272352 3.356774 9.273703 0.613114 2.202541 -15.751508 1.168979 -6.862813 -19.309717 0.000000 0.000000 0.000000 15.917001 -9.493008 9.722661 -0.169834 -2.654778 7.319082 -1.219555 1.960030 -20.320998 -0.231982 -3.099774 8.556560 -0.603294 0.457200 5.946043 0.837996 0.657188 3.224477 1.160168 0.346811 -0.032430 3.347749 -0.000216 -20.532602 2.041743 -1.282759 32.619768 0.099434 0.450441 14.750796 0.000000 0.000000 0.000000 90.000000 0.000000 0.000000 0.000000 0.000000 0.000000 0.000000 0.000000 0.000000 0.000000 0.000000 0.000000 0.000000 0.000000 0.000000 0.000000 0.000000 0.000000 0.000000 0.000000 0.000000 -4.279904 2.146835 33.722006 -15.855399 -25.324196 -3.583919 -13.083145 13.314170 31.317184 0.000000 0.000000 0.000000 7.125000 0.000000 0.000000 21.733301 60.642588 -8.521393
-29.796584 16.869023 2.812397 94.702159 86.882692 89.121991 0.000000 0.000000 0.000000 -10.757308 1.915744 10.310315 0.264809 3.310388 9.144144 0.613922 2.486103 -15.909446 1.093755 -6.646147 -18.671092 0.000000 0.000000 0.000000 16.084815 -8.738182 10.029309 -0.169294 -2.650796 7.308096 -1.253192 1.456383 -20.735733 -0.282319 -3.415973 9.439254 -0.751209 0.514501 5.935177 0.653873 0.726655 3.322075 1.050757 0.381175 0.072889 3.533818 -0.082984 -20.467029 2.127907 -1.495233 32.742931 0.066187 0.403683 14.792956 0.000000 0.000000 0.000000 90.000000 0.000000 0.000000 0.000000 0.000000 0.000000 0.000000 0.000000 0.000000 0.000000 0.000000 0.000000 0.000000 0.000000 0.000000 0.000000 0.000000 0.000000 0.000000 0.000000 0.000000 -3.874282 2.096187 33.705491 -15.973608 -25.484791 -3.634624 -12.822346 13.137324 31.614913 0.000000 0.000000 0.000000 7.125000 0.000000 0.000000 22.258187 60.853321 -8.851539
-29.791203 16.865148 2.863822 88.886859 87.535771 82.999534 0.000000 0.000000 0.000000 -9.588018 2.294537 10.457966 0.278366 3.393480 9.376148 0.613300 2.435840 -15.876212 1.235738 -7.049296 -19.861492 0.000000 0.000000 0.000000 17.254327 -8.358536 10.215904 -0.187979 -2.791991 7.700215 -1.290025 1.316658 -21.083773 -0.300180 -3.522563 9.737232 -0.381876 0.365959 6.326979 1.124650 0.556852 3.361387 1.334418 0.300432 -0.101215 3.026736 -0.117434 -20.394744 2.239493 -1.387896 32.941569 0.222442 0.407639 14.870686 0.000000 0.000000 0.000000 90.000000 0.000000 0.000000 0.000000 0.000000 0.000000 0.000000 0.000000 0.000000 0.000000 0.000000 0.000000 0.000000 0.000000 0.000000 0.000000 0.000000 0.000000 0.000000 0.000000 0.000000 -4.335950 2.288391 34.554411 -16.135602 -25.704165 -3.704593 -12.540151 12.580299 31.720160 0.000000 0.000000 0.000000 7.125000 0.000000 0.000000 22.644393 60.881805 -9.028889
